<?xml version="1.0" encoding="UTF-8" standalone="no" ?>
<!DOCTYPE svg PUBLIC "-//W3C//DTD SVG 1.1//EN" "http://www.w3.org/Graphics/SVG/1.1/DTD/svg11.dtd">
<svg xmlns="http://www.w3.org/2000/svg" xmlns:xlink="http://www.w3.org/1999/xlink" version="1.1" width="1080" height="1080" viewBox="0 0 1080 1080" xml:space="preserve">
<desc>Created with Fabric.js 5.2.4</desc>
<defs>
</defs>
<g transform="matrix(1 0 0 1 540 540)" id="6cc025f5-16fd-4d48-8f32-38d6c77e66b0"  >
<rect style="stroke: none; stroke-width: 1; stroke-dasharray: none; stroke-linecap: butt; stroke-dashoffset: 0; stroke-linejoin: miter; stroke-miterlimit: 4; fill: rgb(255,255,255); fill-rule: nonzero; opacity: 1; visibility: hidden;" vector-effect="non-scaling-stroke"  x="-540" y="-540" rx="0" ry="0" width="1080" height="1080" />
</g>
<g transform="matrix(1 0 0 1 540 540)" id="b9df0742-4d7c-4a53-895a-5247aa6fe573"  >
</g>
<g transform="matrix(17.7 0 0 17.7 540 540)"  >
<g style=""   >
		<g transform="matrix(0.8 0 0 0.8 -0.14 0)" clip-path="url(#CLIPPATH_3)"  >
<clipPath id="CLIPPATH_3" >
	<path transform="matrix(1 0 0 1 0 0) translate(-30.32, -30.5)" id="a" d="M 0.32 0.5 L 60.32 0.5 L 60.32 60.5 L 0.3200000000000003 60.5 z" stroke-linecap="round" />
</clipPath>
<path style="stroke: none; stroke-width: 1; stroke-dasharray: none; stroke-linecap: butt; stroke-dashoffset: 0; stroke-linejoin: miter; stroke-miterlimit: 4; fill: rgb(255,82,0); fill-rule: nonzero; opacity: 1;" vector-effect="non-scaling-stroke"  transform=" translate(-30.32, -30.5)" d="M 0.32 30.5 C 0.32 17.534 0.32 11.053999999999998 3.818 6.6320000000000014 C 4.591035104341263 5.654960205912783 5.474960205912778 4.771035104341269 6.451999999999995 3.9980000000000047 C 10.868 0.5 17.354 0.5 30.32 0.5 C 43.286 0.5 49.766000000000005 0.5 54.188 3.998 C 55.166000000000004 4.772 56.048 5.654 56.822 6.632 C 60.32 11.048 60.32 17.534 60.32 30.5 C 60.32 43.466 60.32 49.946 56.822 54.367999999999995 C 56.04896489565874 55.345039794087214 55.16503979408722 56.228964895658734 54.188 57.001999999999995 C 49.772 60.5 43.286 60.5 30.32 60.5 C 17.354 60.5 10.873999999999999 60.5 6.452000000000002 57.002 C 5.474960205912784 56.22896489565874 4.591035104341265 55.34503979408722 3.8180000000000014 54.368 C 0.32 49.952 0.32 43.466 0.32 30.5 Z" stroke-linecap="round" />
</g>
		<g transform="matrix(0.8 0 0 0.8 -0.37 -0.18)" clip-path="url(#CLIPPATH_4)"  >
<clipPath id="CLIPPATH_4" >
	<path transform="matrix(1 0 0 1 0.28 0.22) translate(-30.32, -30.5)" id="a" d="M 0.32 0.5 L 60.32 0.5 L 60.32 60.5 L 0.3200000000000003 60.5 z" stroke-linecap="round" />
</clipPath>
<path style="stroke: none; stroke-width: 1; stroke-dasharray: none; stroke-linecap: butt; stroke-dashoffset: 0; stroke-linejoin: miter; stroke-miterlimit: 4; fill: rgb(255,255,255); fill-rule: evenodd; opacity: 1;" vector-effect="non-scaling-stroke"  transform=" translate(-30.04, -30.28)" d="M 32.317 24.065 L 32.317 17.849 C 32.31535603040094 17.445410478978363 31.988589521021638 17.118643969599056 31.585 17.117 C 31.181410478978364 17.118643969599056 30.854643969599056 17.445410478978363 30.853 17.849 L 30.853 25.151 C 30.853 25.565 31.189 25.895 31.597 25.895 L 32.311 25.895 C 42.685 25.895 43.765 26.435 43.117 28.625 C 43.086999999999996 28.733 43.050999999999995 28.835 43.015 28.949 C 43.009 28.973000000000003 43.003 28.997 42.997 29.015 C 40.272999999999996 37.229 32.905 47.507000000000005 30.727 50.447 C 30.58299354038769 50.64238077228026 30.354716926865233 50.75771090902163 30.112000000000002 50.75771090902163 C 29.869283073134767 50.75771090902163 29.64100645961231 50.64238077228026 29.497 50.447 C 28.183 48.671 24.967 44.207 22.033 39.143 C 21.835 38.681 21.739 37.601 24.997 37.601 L 28.981 37.601 C 29.203000000000003 37.601 29.383000000000003 37.781 29.383000000000003 38.003 L 29.383000000000003 41.219 C 29.383000000000003 41.603 29.665000000000003 41.957 30.049000000000003 41.987 C 30.26547546364456 42.00518413774049 30.478803136985643 41.92601098062421 30.631000000000004 41.771 C 30.771480304556736 41.63642314049619 30.84971858533692 41.44952058085464 30.847000000000005 41.255 L 30.847000000000005 36.893 C 30.844812983664788 36.476381983532825 30.50761801646718 36.13918701633522 30.091000000000005 36.137 L 22.039000000000005 36.137 C 20.635000000000005 36.137 19.783000000000005 34.937 19.225000000000005 33.845 C 17.473000000000006 30.173 16.219000000000005 26.549 16.219000000000005 23.692999999999998 C 16.219000000000005 16.378999999999998 22.051000000000005 9.796999999999997 30.103000000000005 9.796999999999997 C 37.273 9.796999999999997 42.703 15.010999999999997 43.807 21.316999999999997 C 43.813 21.370999999999995 43.855000000000004 21.610999999999997 43.861000000000004 21.658999999999995 C 44.149 24.754999999999995 36.07300000000001 24.400999999999996 32.67700000000001 24.418999999999997 C 32.58127669836285 24.419807834845084 32.48923917282105 24.38213883923006 32.4215501667955 24.314449833204506 C 32.353861160769945 24.246760827178953 32.316192165154916 24.15472330163715 32.31700000000001 24.058999999999997 L 32.31700000000001 24.064999999999998 Z" stroke-linecap="round" />
</g>
</g>
</g>
</svg>